<svg width="200" height="35" viewBox="0 0 969 235" fill="none" xmlns="http://www.w3.org/2000/svg">
<path d="M47.9993 194L31.0959 48.5455H59.4339L67.9567 155.435H69.3061L114.974 48.5455H140.755L151.124 155.506H152.403L196.295 48.5455H224.633L159.434 194H133.44L121.366 91.9403H120.229L73.9936 194H47.9993ZM254.498 196.131C243.56 196.131 234.517 193.858 227.367 189.312C220.218 184.72 215.199 178.233 212.31 169.852C209.469 161.424 208.996 151.505 210.89 140.094C212.737 128.872 216.501 119.024 222.183 110.548C227.864 102.026 234.967 95.3968 243.489 90.6619C252.059 85.8797 261.529 83.4886 271.898 83.4886C278.622 83.4886 284.801 84.5777 290.435 86.7557C296.07 88.8864 300.828 92.2008 304.711 96.6989C308.594 101.197 311.269 106.926 312.737 113.886C314.204 120.799 314.133 129.038 312.523 138.602L311.316 146.486H221.827L224.597 129.156H289.37C290.222 124.232 289.938 119.852 288.518 116.017C287.097 112.134 284.73 109.08 281.415 106.855C278.101 104.63 273.958 103.517 268.987 103.517C263.92 103.517 259.185 104.819 254.782 107.423C250.426 109.98 246.756 113.295 243.773 117.366C240.79 121.438 238.897 125.723 238.092 130.222L235.18 146.841C234.138 153.659 234.375 159.223 235.89 163.531C237.405 167.84 240.057 171.012 243.844 173.048C247.632 175.084 252.415 176.102 258.191 176.102C261.979 176.102 265.483 175.581 268.702 174.54C271.922 173.498 274.787 171.936 277.296 169.852C279.853 167.722 281.984 165.117 283.688 162.04L307.197 164.739C304.593 171.083 300.781 176.623 295.762 181.358C290.743 186.045 284.73 189.691 277.722 192.295C270.762 194.852 263.021 196.131 254.498 196.131ZM356.344 196.202C349.432 196.202 343.418 194.971 338.305 192.509C333.191 189.999 329.427 186.306 327.012 181.429C324.645 176.552 324.053 170.539 325.237 163.389C326.278 157.234 328.267 152.144 331.202 148.119C334.185 144.095 337.831 140.875 342.14 138.46C346.496 135.998 351.231 134.152 356.344 132.92C361.505 131.689 366.761 130.79 372.112 130.222C378.646 129.559 383.925 128.943 387.95 128.375C392.022 127.807 395.076 126.955 397.112 125.818C399.147 124.634 400.379 122.835 400.805 120.42V119.994C401.657 114.644 400.805 110.501 398.248 107.565C395.691 104.63 391.43 103.162 385.464 103.162C379.214 103.162 373.958 104.535 369.697 107.281C365.435 110.027 362.334 113.271 360.393 117.011L337.097 113.602C340.033 106.973 344.058 101.434 349.171 96.983C354.285 92.4848 360.18 89.1231 366.856 86.8977C373.579 84.625 380.753 83.4886 388.376 83.4886C393.584 83.4886 398.674 84.1042 403.646 85.3352C408.665 86.5663 413.092 88.6023 416.927 91.4432C420.809 94.2367 423.65 98.0483 425.45 102.878C427.296 107.707 427.604 113.744 426.373 120.989L414.228 194H389.512L392.069 179.014H391.217C389.181 182.045 386.529 184.885 383.262 187.537C379.995 190.141 376.112 192.248 371.614 193.858C367.116 195.42 362.026 196.202 356.344 196.202ZM366.075 177.31C371.236 177.31 375.876 176.292 379.995 174.256C384.114 172.172 387.5 169.426 390.151 166.017C392.803 162.608 394.46 158.891 395.123 154.866L397.254 142.011C396.307 142.674 394.839 143.29 392.85 143.858C390.862 144.426 388.636 144.923 386.174 145.349C383.759 145.776 381.368 146.154 379.001 146.486C376.633 146.817 374.597 147.101 372.893 147.338C368.963 147.859 365.364 148.711 362.097 149.895C358.878 151.079 356.202 152.736 354.072 154.866C351.988 156.95 350.686 159.649 350.165 162.963C349.408 167.651 350.521 171.225 353.504 173.688C356.487 176.102 360.677 177.31 366.075 177.31ZM551.799 84.9091L494.768 194H466.359L445.691 84.9091H472.112L483.759 165.946H484.896L523.461 84.9091H551.799ZM595.709 196.131C584.771 196.131 575.728 193.858 568.578 189.312C561.429 184.72 556.41 178.233 553.521 169.852C550.68 161.424 550.207 151.505 552.101 140.094C553.947 128.872 557.712 119.024 563.393 110.548C569.075 102.026 576.178 95.3968 584.7 90.6619C593.27 85.8797 602.74 83.4886 613.109 83.4886C619.833 83.4886 626.012 84.5777 631.646 86.7557C637.281 88.8864 642.039 92.2008 645.922 96.6989C649.804 101.197 652.48 106.926 653.947 113.886C655.415 120.799 655.344 129.038 653.734 138.602L652.527 146.486H563.038L565.808 129.156H630.581C631.433 124.232 631.149 119.852 629.729 116.017C628.308 112.134 625.941 109.08 622.626 106.855C619.312 104.63 615.169 103.517 610.197 103.517C605.131 103.517 600.396 104.819 595.993 107.423C591.637 109.98 587.967 113.295 584.984 117.366C582.001 121.438 580.107 125.723 579.303 130.222L576.391 146.841C575.349 153.659 575.586 159.223 577.101 163.531C578.616 167.84 581.268 171.012 585.055 173.048C588.843 175.084 593.625 176.102 599.402 176.102C603.19 176.102 606.694 175.581 609.913 174.54C613.133 173.498 615.998 171.936 618.507 169.852C621.064 167.722 623.195 165.117 624.899 162.04L648.408 164.739C645.804 171.083 641.992 176.623 636.973 181.358C631.954 186.045 625.941 189.691 618.933 192.295C611.973 194.852 604.232 196.131 595.709 196.131ZM666.447 194L684.629 84.9091H709.558L706.504 103.091H707.641C710.624 96.7936 714.838 91.9403 720.283 88.5312C725.775 85.0748 731.646 83.3466 737.896 83.3466C739.364 83.3466 740.95 83.4176 742.655 83.5597C744.359 83.6544 745.827 83.8201 747.058 84.0568L743.081 107.707C741.992 107.329 740.287 106.997 737.967 106.713C735.695 106.382 733.446 106.216 731.22 106.216C726.533 106.216 722.177 107.234 718.152 109.27C714.175 111.259 710.813 114.028 708.067 117.58C705.321 121.131 703.545 125.226 702.74 129.866L692.158 194H666.447ZM745.94 194L764.121 84.9091H789.05L785.996 103.091H787.133C790.116 96.7936 794.33 91.9403 799.775 88.5312C805.267 85.0748 811.138 83.3466 817.388 83.3466C818.856 83.3466 820.442 83.4176 822.147 83.5597C823.852 83.6544 825.319 83.8201 826.55 84.0568L822.573 107.707C821.484 107.329 819.78 106.997 817.46 106.713C815.187 106.382 812.938 106.216 810.712 106.216C806.025 106.216 801.669 107.234 797.644 109.27C793.667 111.259 790.305 114.028 787.559 117.58C784.813 121.131 783.037 125.226 782.232 129.866L771.65 194H745.94ZM838.056 234.909C834.552 234.909 831.356 234.625 828.468 234.057C825.627 233.536 823.378 232.92 821.721 232.21L831.096 212.182C834.647 213.271 837.843 213.744 840.684 213.602C843.572 213.508 846.224 212.537 848.638 210.69C851.101 208.891 853.515 205.932 855.883 201.812L859.15 195.918L838.269 84.9091H864.548L875.911 167.438H877.048L916.039 84.9091H944.377L880.528 207.068C877.45 212.987 873.875 218.006 869.803 222.125C865.731 226.292 861.067 229.464 855.812 231.642C850.603 233.82 844.685 234.909 838.056 234.909Z" fill="#849FFF"/>
<path d="M67.9993 194L51.0959 48.5455H79.4339L87.9567 155.435H89.3061L134.974 48.5455H160.755L171.124 155.506H172.403L216.295 48.5455H244.633L179.434 194H153.44L141.366 91.9403H140.229L93.9936 194H67.9993ZM274.498 196.131C263.56 196.131 254.517 193.858 247.367 189.312C240.218 184.72 235.199 178.233 232.31 169.852C229.469 161.424 228.996 151.505 230.89 140.094C232.737 128.872 236.501 119.024 242.183 110.548C247.864 102.026 254.967 95.3968 263.489 90.6619C272.059 85.8797 281.529 83.4886 291.898 83.4886C298.622 83.4886 304.801 84.5777 310.435 86.7557C316.07 88.8864 320.828 92.2008 324.711 96.6989C328.594 101.197 331.269 106.926 332.737 113.886C334.204 120.799 334.133 129.038 332.523 138.602L331.316 146.486H241.827L244.597 129.156H309.37C310.222 124.232 309.938 119.852 308.518 116.017C307.097 112.134 304.73 109.08 301.415 106.855C298.101 104.63 293.958 103.517 288.987 103.517C283.92 103.517 279.185 104.819 274.782 107.423C270.426 109.98 266.756 113.295 263.773 117.366C260.79 121.438 258.897 125.723 258.092 130.222L255.18 146.841C254.138 153.659 254.375 159.223 255.89 163.531C257.405 167.84 260.057 171.012 263.844 173.048C267.632 175.084 272.415 176.102 278.191 176.102C281.979 176.102 285.483 175.581 288.702 174.54C291.922 173.498 294.787 171.936 297.296 169.852C299.853 167.722 301.984 165.117 303.688 162.04L327.197 164.739C324.593 171.083 320.781 176.623 315.762 181.358C310.743 186.045 304.73 189.691 297.722 192.295C290.762 194.852 283.021 196.131 274.498 196.131ZM376.344 196.202C369.432 196.202 363.418 194.971 358.305 192.509C353.191 189.999 349.427 186.306 347.012 181.429C344.645 176.552 344.053 170.539 345.237 163.389C346.278 157.234 348.267 152.144 351.202 148.119C354.185 144.095 357.831 140.875 362.14 138.46C366.496 135.998 371.231 134.152 376.344 132.92C381.505 131.689 386.761 130.79 392.112 130.222C398.646 129.559 403.925 128.943 407.95 128.375C412.022 127.807 415.076 126.955 417.112 125.818C419.147 124.634 420.379 122.835 420.805 120.42V119.994C421.657 114.644 420.805 110.501 418.248 107.565C415.691 104.63 411.43 103.162 405.464 103.162C399.214 103.162 393.958 104.535 389.697 107.281C385.435 110.027 382.334 113.271 380.393 117.011L357.097 113.602C360.033 106.973 364.058 101.434 369.171 96.983C374.285 92.4848 380.18 89.1231 386.856 86.8977C393.579 84.625 400.753 83.4886 408.376 83.4886C413.584 83.4886 418.674 84.1042 423.646 85.3352C428.665 86.5663 433.092 88.6023 436.927 91.4432C440.809 94.2367 443.65 98.0483 445.45 102.878C447.296 107.707 447.604 113.744 446.373 120.989L434.228 194H409.512L412.069 179.014H411.217C409.181 182.045 406.529 184.885 403.262 187.537C399.995 190.141 396.112 192.248 391.614 193.858C387.116 195.42 382.026 196.202 376.344 196.202ZM386.075 177.31C391.236 177.31 395.876 176.292 399.995 174.256C404.114 172.172 407.5 169.426 410.151 166.017C412.803 162.608 414.46 158.891 415.123 154.866L417.254 142.011C416.307 142.674 414.839 143.29 412.85 143.858C410.862 144.426 408.636 144.923 406.174 145.349C403.759 145.776 401.368 146.154 399.001 146.486C396.633 146.817 394.597 147.101 392.893 147.338C388.963 147.859 385.364 148.711 382.097 149.895C378.878 151.079 376.202 152.736 374.072 154.866C371.988 156.95 370.686 159.649 370.165 162.963C369.408 167.651 370.521 171.225 373.504 173.688C376.487 176.102 380.677 177.31 386.075 177.31ZM571.799 84.9091L514.768 194H486.359L465.691 84.9091H492.112L503.759 165.946H504.896L543.461 84.9091H571.799ZM615.709 196.131C604.771 196.131 595.728 193.858 588.578 189.312C581.429 184.72 576.41 178.233 573.521 169.852C570.68 161.424 570.207 151.505 572.101 140.094C573.947 128.872 577.712 119.024 583.393 110.548C589.075 102.026 596.178 95.3968 604.7 90.6619C613.27 85.8797 622.74 83.4886 633.109 83.4886C639.833 83.4886 646.012 84.5777 651.646 86.7557C657.281 88.8864 662.039 92.2008 665.922 96.6989C669.804 101.197 672.48 106.926 673.947 113.886C675.415 120.799 675.344 129.038 673.734 138.602L672.527 146.486H583.038L585.808 129.156H650.581C651.433 124.232 651.149 119.852 649.729 116.017C648.308 112.134 645.941 109.08 642.626 106.855C639.312 104.63 635.169 103.517 630.197 103.517C625.131 103.517 620.396 104.819 615.993 107.423C611.637 109.98 607.967 113.295 604.984 117.366C602.001 121.438 600.107 125.723 599.303 130.222L596.391 146.841C595.349 153.659 595.586 159.223 597.101 163.531C598.616 167.84 601.268 171.012 605.055 173.048C608.843 175.084 613.625 176.102 619.402 176.102C623.19 176.102 626.694 175.581 629.913 174.54C633.133 173.498 635.998 171.936 638.507 169.852C641.064 167.722 643.195 165.117 644.899 162.04L668.408 164.739C665.804 171.083 661.992 176.623 656.973 181.358C651.954 186.045 645.941 189.691 638.933 192.295C631.973 194.852 624.232 196.131 615.709 196.131ZM686.447 194L704.629 84.9091H729.558L726.504 103.091H727.641C730.624 96.7936 734.838 91.9403 740.283 88.5312C745.775 85.0748 751.646 83.3466 757.896 83.3466C759.364 83.3466 760.95 83.4176 762.655 83.5597C764.359 83.6544 765.827 83.8201 767.058 84.0568L763.081 107.707C761.992 107.329 760.287 106.997 757.967 106.713C755.695 106.382 753.446 106.216 751.22 106.216C746.533 106.216 742.177 107.234 738.152 109.27C734.175 111.259 730.813 114.028 728.067 117.58C725.321 121.131 723.545 125.226 722.74 129.866L712.158 194H686.447ZM765.94 194L784.121 84.9091H809.05L805.996 103.091H807.133C810.116 96.7936 814.33 91.9403 819.775 88.5312C825.267 85.0748 831.138 83.3466 837.388 83.3466C838.856 83.3466 840.442 83.4176 842.147 83.5597C843.852 83.6544 845.319 83.8201 846.55 84.0568L842.573 107.707C841.484 107.329 839.78 106.997 837.46 106.713C835.187 106.382 832.938 106.216 830.712 106.216C826.025 106.216 821.669 107.234 817.644 109.27C813.667 111.259 810.305 114.028 807.559 117.58C804.813 121.131 803.037 125.226 802.232 129.866L791.65 194H765.94ZM858.056 234.909C854.552 234.909 851.356 234.625 848.468 234.057C845.627 233.536 843.378 232.92 841.721 232.21L851.096 212.182C854.647 213.271 857.843 213.744 860.684 213.602C863.572 213.508 866.224 212.537 868.638 210.69C871.101 208.891 873.515 205.932 875.883 201.812L879.15 195.918L858.269 84.9091H884.548L895.911 167.438H897.048L936.039 84.9091H964.377L900.528 207.068C897.45 212.987 893.875 218.006 889.803 222.125C885.731 226.292 881.067 229.464 875.812 231.642C870.603 233.82 864.685 234.909 858.056 234.909Z" fill="#FFFDF4"/>
</svg>
